<?xml version="1.0" encoding="UTF-8"?><svg id="Layer_2" xmlns="http://www.w3.org/2000/svg" viewBox="0 0 114 111"><g id="Layer_1-2"><path d="m59.48,110c-1.14,0-2.22-.45-3.03-1.25l-11.2-11.2c-1-1-2.32-1.55-3.73-1.55h-7.24c-2.91,0-5.28,2.37-5.28,5.28v4.44c0,2.36-1.92,4.28-4.28,4.28H7.74c-3.72,0-6.74-2.88-6.74-6.41v-14.42c0-3.4,2.91-6.17,6.49-6.17h2.23c2.91,0,5.28-2.37,5.28-5.28v-6.69c0-1.42-.59-2.81-1.61-3.8L1,55.28v-26.78c0-4.84,1.28-9.6,3.71-13.75,2.45-4.19,5.98-7.68,10.2-10.1,4.19-2.39,8.97-3.65,13.84-3.65h26.45c1.13,0,2.2.44,3.01,1.23l11.38,11.24c1,.98,2.31,1.52,3.71,1.52h7.43c2.91,0,5.28-2.37,5.28-5.28v-4.44c0-2.36,1.92-4.28,4.28-4.28h16.22c3.58,0,6.5,2.8,6.5,6.25v13.5c0,3.44-2.92,6.24-6.5,6.25h-2.22c-2.91,0-5.28,2.37-5.28,5.28v6.69c0,1.43.59,2.81,1.62,3.8l11.08,10.68c.83.8,1.31,1.92,1.31,3.08v25.97c0,4.82-1.27,9.58-3.68,13.75-2.41,4.17-5.89,7.65-10.07,10.06-4.17,2.41-8.93,3.68-13.75,3.68h-.5s-25.52,0-25.52,0Zm-30.76-34c.25,3.9,3.42,7,7.28,7h37.37c6.69,0,12.13-5.44,12.13-12.13v-31.75c0-6.68-5.44-12.12-12.12-12.12h-37.38c-3.86,0-7.03,3.1-7.28,7h-.22v42h.22Z" style="fill:#fff; stroke-width:0px;"/><path d="m106.5,1.5c3.31,0,6,2.58,6,5.75v13.5c0,3.16-2.69,5.74-6,5.75h-2.22c-3.19,0-5.78,2.59-5.78,5.78v6.69c0,1.56.64,3.08,1.77,4.16l11.08,10.68c.73.71,1.16,1.7,1.16,2.72v25.97c0,4.74-1.25,9.4-3.62,13.5-2.37,4.09-5.79,7.51-9.88,9.88-4.09,2.37-8.76,3.62-13.5,3.62h-1s-25.02.01-25.02.01c-1.01,0-1.96-.39-2.67-1.11l-11.2-11.2c-1.09-1.09-2.54-1.69-4.09-1.69h-7.24c-3.19,0-5.78,2.59-5.78,5.78v4.44c0,2.08-1.7,3.78-3.78,3.78H7.74c-3.44,0-6.24-2.65-6.24-5.91v-14.42c0-3.13,2.69-5.67,5.99-5.67h2.23c3.19,0,5.78-2.59,5.78-5.78v-6.69c0-1.56-.64-3.08-1.77-4.16L1.5,55.07v-26.57c0-4.75,1.26-9.42,3.64-13.5,2.41-4.12,5.87-7.55,10.01-9.92,4.11-2.35,8.81-3.59,13.59-3.59h26.45c1,0,1.94.39,2.66,1.09l11.38,11.24c1.09,1.08,2.53,1.67,4.06,1.67h7.43c3.19,0,5.78-2.59,5.78-5.78v-4.44c0-2.08,1.7-3.78,3.78-3.78h16.22M28.26,33.5h-.26v43h.26c.48,3.94,3.77,7,7.74,7h37.37c6.96,0,12.63-5.67,12.63-12.63v-31.75c0-6.96-5.66-12.62-12.62-12.62h-37.38c-3.97,0-7.26,3.06-7.74,7M106.5.5h-16.22c-2.64,0-4.78,2.14-4.78,4.78v4.44c0,2.64-2.14,4.78-4.78,4.78h-7.43c-1.26,0-2.46-.5-3.36-1.38L58.56,1.88c-.89-.88-2.1-1.38-3.36-1.38h-26.45c-5.13,0-9.94,1.35-14.09,3.72-4.3,2.46-7.89,6.02-10.38,10.28C1.87,18.62.5,23.4.5,28.5v27h.01l12.53,12.09c.93.9,1.46,2.14,1.46,3.44v6.69c0,2.64-2.14,4.78-4.78,4.78h-2.23c-3.86,0-6.99,2.98-6.99,6.67v14.42c0,3.81,3.24,6.91,7.24,6.91h16.98c2.64,0,4.78-2.14,4.78-4.78v-4.44c0-2.64,2.14-4.78,4.78-4.78h7.24c1.27,0,2.48.5,3.38,1.4l11.2,11.2c.9.9,2.11,1.4,3.38,1.4h26.02c5.1-.01,9.88-1.38,14-3.76,4.24-2.45,7.79-5.99,10.25-10.24,2.38-4.12,3.75-8.9,3.75-14v-25.97c0-1.3-.53-2.54-1.46-3.44l-11.08-10.68c-.93-.9-1.46-2.14-1.46-3.44v-6.69c0-2.64,2.14-4.78,4.78-4.78h2.22c3.87-.01,7-3.03,7-6.75V7.25c0-3.73-3.14-6.75-7-6.75h0ZM29,75.5v-41h.2c0-3.87,3.05-7,6.8-7h37.38c6.42,0,11.62,5.2,11.62,11.62v31.75c0,6.42-5.21,11.63-11.63,11.63h-37.37c-3.75,0-6.8-3.14-6.8-7h-.2Z" style="fill:#fff; stroke-width:0px;"/></g></svg>