<svg width="42" height="35" viewBox="0 0 42 35" fill="none" xmlns="http://www.w3.org/2000/svg">
  <rect x="0.250427" y="0.25" width="41.4997" height="34.4997" rx="2.75" fill="none" stroke="#AAB0B5" stroke-width="0.5"></rect>
  <path d="M14.4374 11.8115L9.62493 7.87398L0 7.87398M14.4374 11.8115L14.4374 17.4989M14.4374 11.8115L20.5624 11.8115M26.6873 11.8115V17.4989M26.6873 11.8115L31.4998 7.87398L41.1247 7.87398M26.6873 11.8115H20.5624M26.6873 23.1864V17.4989M26.6873 23.1864L31.4998 27.9988L41.1247 27.9988M26.6873 23.1864H20.5624M14.4374 23.1864V17.4989M14.4374 23.1864L9.62493 27.9988H0M14.4374 23.1864H20.5624M14.4374 17.4989H0M26.6873 17.4989L41.1247 17.4989M20.5624 23.1864L20.5624 34.5613M20.5624 11.8115V0.436539" stroke="#AAB0B5" stroke-width="0.5"></path>
</svg>
